<svg id="Layer_1" data-name="Layer 1" xmlns="http://www.w3.org/2000/svg" viewBox="0 0 606.68 143.81"><defs><style>.cls-1{fill:#0e1d32;}</style></defs><title>1</title><path class="cls-1" d="M0,286.78c11.28,0,22.57,0,33.85,0a2,2,0,0,1,2.21,1.58q11,29.71,21.53,59.61c.12.35.23.7.35,1s.23.5.52.53.56-.25.67-.55c.44-1.23.86-2.48,1.32-3.71Q71,316.62,81.54,288c.27-.73.45-1.24,1.46-1.24,11.07.05,22.14,0,33.22,0a4.18,4.18,0,0,1,.58.09c-1.86,4.05-3.68,8.06-5.52,12.05q-17.86,38.91-35.76,77.79a6.22,6.22,0,0,0-.59,2.73c0,15.61,0,31.22,0,46.82,0,1.27-.22,1.69-1.6,1.68q-15-.1-30.05,0c-1.39,0-1.58-.42-1.58-1.67,0-15.6,0-31.21,0-46.82a6.13,6.13,0,0,0-.6-2.72Q21,332.6.75,288.43c-.21-.46-.27-1-.75-1.33Z" transform="translate(0 -286.74)"/><path class="cls-1" d="M479.14,357.35q0,34.39,0,68.81c0,1.43-.34,1.8-1.78,1.79q-14.72-.1-29.42,0c-1.6,0-1.83-.47-1.82-1.92.05-18.24,0-36.49.06-54.73,0-1.26-.21-1.67-1.58-1.66q-21.12.09-42.24,0c-1.37,0-1.82.24-1.82,1.74.06,18.3,0,36.6.07,54.9,0,1.26-.22,1.66-1.59,1.65q-15.18-.1-30.37,0c-1.17,0-1.48-.26-1.48-1.46q.06-69.14,0-138.26c0-1.19.29-1.47,1.47-1.47q15.26.08,30.53,0c1.23,0,1.43.36,1.43,1.49,0,16.77,0,33.54-.07,50.3,0,1.5.45,1.76,1.82,1.75q21-.07,42.08,0c1.5,0,1.75-.45,1.74-1.82,0-16.66,0-33.32-.06-50,0-1.29.17-1.76,1.66-1.75q14.87.12,29.74,0c1.31,0,1.63.31,1.62,1.62Q479.11,322.86,479.14,357.35Z" transform="translate(0 -286.74)"/><path class="cls-1" d="M215.18,374.12c0,17.4,0,34.8,0,52.21,0,1.32-.31,1.63-1.62,1.62-8-.07-15.93-.06-23.89,0-1.13,0-1.62-.19-1.79-1.46-.54-4.07-1.26-8.12-1.94-12.17-.07-.43.05-1.06-.46-1.24s-.9.42-1.22.8c-5.16,6.12-11,11.35-18.66,14.18a38,38,0,0,1-25,.76c-9.35-2.89-14.93-9.66-18.18-18.58A64.17,64.17,0,0,1,119,388.33c-.06-22.31,0-44.61-.06-66.92,0-1.24.37-1.43,1.49-1.43q15.1.07,30.22,0c1.3,0,1.52.4,1.52,1.58q0,31.49,0,63a41,41,0,0,0,.66,7.08c1.29,7.35,5.55,10.51,13,10s12-5,15.92-10.66c.4-.57.22-1.22.22-1.84q0-33.69,0-67.39c0-1.4.33-1.73,1.72-1.72q15,.11,30.06,0c1.18,0,1.46.28,1.46,1.46C215.16,339,215.18,356.56,215.18,374.12Z" transform="translate(0 -286.74)"/><path class="cls-1" d="M242.34,373.83c0-17.4,0-34.8,0-52.2,0-1.28.24-1.67,1.6-1.66q12,.12,24,0c1.2,0,1.5.41,1.65,1.46q.76,5.24,1.69,10.45c.1.56-.12,1.41.55,1.66s1.06-.55,1.49-1a63.88,63.88,0,0,1,12.37-9.52,40,40,0,0,1,28.16-4.87c11.22,2.14,18.1,9.26,21.84,19.73,2.65,7.39,3.43,15.08,3.44,22.86.05,21.88,0,43.77,0,65.65,0,1.12-.18,1.52-1.43,1.51q-15.18-.07-30.37,0c-1.26,0-1.42-.41-1.41-1.51q0-30.06,0-60.11a50.4,50.4,0,0,0-.89-10.69c-1.55-7.09-5.55-9.78-13.12-9.23-4.91.35-8.88,2.7-12.52,5.79-4.15,3.52-4.17,3.5-4.17,8.95q0,32.6,0,65.18c0,1.32-.32,1.62-1.62,1.62q-14.79-.1-29.59,0c-1.37,0-1.82-.25-1.82-1.75C242.37,408.74,242.34,391.28,242.34,373.83Z" transform="translate(0 -286.74)"/><path class="cls-1" d="M604.7,357.41c-6.09-24.24-25.2-38.26-45.13-39.66-21.3-1.5-37.87,7-48.69,25.36-8.73,14.85-9.71,31.07-5.77,47.57,5.24,22,22.71,37.38,45.1,39.46,17.78,1.66,32.62-4.64,44-18.39,9-10.89,12.4-23.81,12.46-37.75A65.73,65.73,0,0,0,604.7,357.41ZM572.76,374c-.06,6.19-.53,12.33-2.86,18.15-2.13,5.3-5.53,9.27-11.42,10.56a15.38,15.38,0,0,1-17-7.37,32,32,0,0,1-4-13c-.89-8-.75-16,1.44-23.83a22.43,22.43,0,0,1,3.94-8,15.49,15.49,0,0,1,24.48.54c2.81,3.91,4,8.42,4.73,13.08A57.79,57.79,0,0,1,572.76,374Z" transform="translate(0 -286.74)"/></svg>